# xmcd
#
# Track frame offsets: 
#        150
#        13572
#        25312
#        38259
#        49980
#        62769
#        76999
#        88995
#        104094
#        119665
#
# Disc length: 1791 seconds
#
# Revision: 0
# Processed by: cddbd v1.5.2PL0 Copyright (c) Steve Scherf et al.
# Submitted via: ExactAudioCopy v0.99pb4
#
DISCID=8106fd0a
DTITLE=Lacy J. Dalton - Lacy J.  Dalton
DYEAR=1980
DGENRE=Country
TTITLE0=Crazy Blue Eyes
TTITLE1=High Like an Angel
TTITLE2=Honky Tonk Man
TTITLE3=Carolina Come-On
TTITLE4=Beer Drinkin' Song
TTITLE5=Tennessee Waltz
TTITLE6=Late Night Kind of Lonesome
TTITLE7=Losing Kind of Love
TTITLE8=Are There Any Cowboys Left (In the Good Ol U.S.A.)?
TTITLE9=Turn My Head Around
EXTD=
EXTT0=
EXTT1=
EXTT2=
EXTT3=
EXTT4=
EXTT5=
EXTT6=
EXTT7=
EXTT8=
EXTT9=
PLAYORDER=
